<svg xmlns="http://www.w3.org/2000/svg" width="24" height="24" viewBox="0 0 24 24" stroke-linecap="round" stroke-linejoin="round" fill="none" stroke="currentColor" stroke-width="1.75"><mask id="image-generate-ocut" maskUnits="userSpaceOnUse" x="0" y="0" width="24" height="24"><rect width="24" height="24" fill="#fff" stroke="none"/><g fill="none" stroke="#000"><path d="M17.5 3Q18.27 5.73 21 6.5Q18.27 7.27 17.5 10Q16.73 7.27 14 6.5Q16.73 5.73 17.5 3Z" fill="#000" stroke-width="4.5"/></g></mask><g mask="url(#image-generate-ocut)"><rect x="3" y="6" width="15" height="15" rx="2.5"/><circle cx="7.5" cy="10.5" r="1.5"/><path d="m18 16.5-2.9-2.9a1.5 1.5 0 0 0-2.1 0L6 21"/></g><path d="M17.5 3Q18.27 5.73 21 6.5Q18.27 7.27 17.5 10Q16.73 7.27 14 6.5Q16.73 5.73 17.5 3Z"/></svg>
