<svg xmlns="http://www.w3.org/2000/svg" width="24" height="24" viewBox="0 0 24 24" stroke-linecap="round" stroke-linejoin="round" fill="currentColor" stroke="currentColor" stroke-width="1.75"><mask id="blog-cut" maskUnits="userSpaceOnUse" x="0" y="0" width="24" height="24"><rect width="24" height="24" fill="#fff" stroke="none"/><g fill="none" stroke="#000"><path stroke-width="1.5" d="M14 3.5V7a1 1 0 0 0 1 1h3.5M8.5 9h3M8.5 12.5h7M8.5 16h3"/><circle cx="18" cy="18" r="5.25" fill="#000" stroke="none"/></g></mask><g mask="url(#blog-cut)"><path d="M14 3H7.5A2.5 2.5 0 0 0 5 5.5v13A2.5 2.5 0 0 0 7.5 21h9a2.5 2.5 0 0 0 2.5-2.5V8Z"/></g><path d="M14.75 21v-2l3.6-3.6a1.41 1.41 0 0 1 2 2L16.75 21Z"/></svg>
