<svg xmlns="http://www.w3.org/2000/svg" width="24" height="24" viewBox="0 0 24 24" stroke-linecap="round" stroke-linejoin="round" fill="currentColor" stroke="currentColor" stroke-width="1.75"><mask id="color-swatch-cut" maskUnits="userSpaceOnUse" x="0" y="0" width="24" height="24"><rect width="24" height="24" fill="#fff" stroke="none"/><g fill="none" stroke="#000"><path stroke-width="1.5" d="M11 8.75V17a4 4 0 0 1-1.17 2.83M16.67 13l-5.2 5.2"/><circle cx="7" cy="17" r="1.25" fill="#000" stroke="none"/></g></mask><g mask="url(#color-swatch-cut)"><path d="M11 17a4 4 0 0 1-8 0V5a2 2 0 0 1 2-2h4a2 2 0 0 1 2 2Z"/><path d="m11 8 2.3-2.3a2.4 2.4 0 0 1 3.4 0l1.9 1.9a2.4 2.4 0 0 1 .03 3.43L9.9 19.8L11 17Z"/><path d="M16.7 13H19a2 2 0 0 1 2 2v4a2 2 0 0 1-2 2H7L10 18Z"/></g></svg>
